<svg width="0" height="0" style="position:absolute"><symbol style="enable-background:new 0 0 512 512" xml:space="preserve" viewBox="0 0 512 512" id="close" xmlns="http://www.w3.org/2000/svg"><path fill="currentColor" d="M437.5 386.6 306.9 256l130.6-130.6c14.1-14.1 14.1-36.8 0-50.9-14.1-14.1-36.8-14.1-50.9 0L256 205.1 125.4 74.5c-14.1-14.1-36.8-14.1-50.9 0-14.1 14.1-14.1 36.8 0 50.9L205.1 256 74.5 386.6c-14.1 14.1-14.1 36.8 0 50.9 14.1 14.1 36.8 14.1 50.9 0L256 306.9l130.6 130.6c14.1 14.1 36.8 14.1 50.9 0 14-14.1 14-36.9 0-50.9z"/></symbol><symbol viewBox="0 0 24 24" id="right-arrow" xmlns="http://www.w3.org/2000/svg"><path style="fill:currentColor" d="M6.079 22.5a1.5 1.5 0 0 1 .44-1.06l7.672-7.672a2.5 2.5 0 0 0 0-3.536L6.529 2.565A1.5 1.5 0 0 1 8.65.444l7.662 7.661a5.506 5.506 0 0 1 0 7.779L8.64 23.556A1.5 1.5 0 0 1 6.079 22.5Z"/></symbol></svg>