<svg width="0" height="0" style="position:absolute"><symbol viewBox="0 0 18 15" id="check" xmlns="http://www.w3.org/2000/svg"><path d="M6 10.7 1.8 6.5.4 7.9 6 13.5l12-12L16.6.1 6 10.7Z" fill="currentColor" fill-rule="evenodd" stroke="currentColor"/></symbol><symbol style="enable-background:new 0 0 512 512" xml:space="preserve" viewBox="0 0 512 512" id="close" xmlns="http://www.w3.org/2000/svg"><path fill="currentColor" d="M437.5 386.6 306.9 256l130.6-130.6c14.1-14.1 14.1-36.8 0-50.9-14.1-14.1-36.8-14.1-50.9 0L256 205.1 125.4 74.5c-14.1-14.1-36.8-14.1-50.9 0-14.1 14.1-14.1 36.8 0 50.9L205.1 256 74.5 386.6c-14.1 14.1-14.1 36.8 0 50.9 14.1 14.1 36.8 14.1 50.9 0L256 306.9l130.6 130.6c14.1 14.1 36.8 14.1 50.9 0 14-14.1 14-36.9 0-50.9z"/></symbol><symbol class="cfeather cfeather-copy" fill="none" stroke="currentColor" stroke-linecap="round" stroke-linejoin="round" stroke-width="2" viewBox="0 0 24 24" id="copy" xmlns="http://www.w3.org/2000/svg"><rect height="13" rx="2" ry="2" width="13" x="9" y="9"/><path d="M5 15H4a2 2 0 0 1-2-2V4a2 2 0 0 1 2-2h9a2 2 0 0 1 2 2v1"/></symbol><symbol viewBox="0 0 512 512" id="frozen" xmlns="http://www.w3.org/2000/svg"><path style="fill:none;stroke:currentColor;stroke-linecap:round;stroke-linejoin:round;stroke-width:32px" d="M256 32v448M313.72 80A111.47 111.47 0 0 1 256 96a111.47 111.47 0 0 1-57.72-16M198.28 432a112.11 112.11 0 0 1 115.44 0M449.99 144 62.01 368M437.27 218a112.09 112.09 0 0 1-57.71-100M74.73 294a112.09 112.09 0 0 1 57.71 100M62.01 144l387.98 224M74.73 218a112.09 112.09 0 0 0 57.71-100M437.27 294a112.09 112.09 0 0 0-57.71 100"/></symbol><symbol xml:space="preserve" viewBox="0 0 64 64" id="not-found" xmlns="http://www.w3.org/2000/svg"><g transform="translate(-384 -96)"><path d="M394 105h49v6h-49z" style="fill:#3e4f59;fill-opacity:1;fill-rule:evenodd;stroke-width:2;stroke-linecap:round;stroke-linejoin:round;stroke-miterlimit:4.1"/><path d="M394 111h49v40h-49z" style="fill:#acbec2;fill-opacity:1;fill-rule:evenodd;stroke-width:2.00001;stroke-linecap:round;stroke-linejoin:round;stroke-miterlimit:4.1"/><path d="M394 111v40h29.77a28.484 41.393 35.6 0 0 18.625-40z" style="fill:#e8edee;fill-opacity:1;fill-rule:evenodd;stroke:none;stroke-width:2.00002;stroke-linecap:round;stroke-linejoin:round;stroke-miterlimit:4.1"/><path d="M396 104c-1.645 0-3 1.355-3 3v40a1 1 0 1 0 2 0v-40c0-.564.436-1 1-1h45c.564 0 1 .436 1 1v3h-42a1 1 0 0 0 0 2h42v37c0 .564-.436 1-1 1h-49a1 1 0 0 0 0 2h49c1.645 0 3-1.355 3-3v-42c0-1.645-1.355-3-3-3z" style="color:#000;fill:#000;fill-rule:evenodd;stroke-linecap:round;stroke-linejoin:round;stroke-miterlimit:4.1"/><path d="M439 107a1 1 0 1 0 0 2 1 1 0 0 0 0-2z" style="color:#000;fill:#ed7161;fill-opacity:1;fill-rule:evenodd;stroke-linecap:round;stroke-linejoin:round;stroke-miterlimit:4.1;-inkscape-stroke:none"/><path d="M435 107a1 1 0 1 0 0 2 1 1 0 0 0 0-2z" style="color:#000;fill:#ecba16;fill-opacity:1;fill-rule:evenodd;stroke-linecap:round;stroke-linejoin:round;stroke-miterlimit:4.1;-inkscape-stroke:none"/><path d="M431 107a1 1 0 1 0 0 2 1 1 0 0 0 0-2z" style="color:#000;fill:#42b05c;fill-opacity:1;fill-rule:evenodd;stroke-linecap:round;stroke-linejoin:round;stroke-miterlimit:4.1;-inkscape-stroke:none"/><path d="M389 150a1 1 0 0 0-1 1 1 1 0 0 0 1 1 1 1 0 0 0 1-1 1 1 0 0 0-1-1zM397 110a1 1 0 1 0 0 2 1 1 0 0 0 0-2z" style="color:#000;fill:#000;fill-rule:evenodd;stroke-linecap:round;stroke-linejoin:round;stroke-miterlimit:4.1;-inkscape-stroke:none"/><rect height="22" rx="2" ry="2" style="fill:#0075d3;fill-opacity:1;fill-rule:evenodd;stroke:none;stroke-width:2;stroke-linecap:round;stroke-linejoin:round;stroke-miterlimit:4.1" width="29" x="404" y="120"/><path d="M406 120c-1.108 0-2 .892-2 2v18c0 1.108.892 2 2 2h19.584a19.317 16.375 0 0 0 4.637-10.633A19.317 16.375 0 0 0 424.803 120Z" style="fill:#0588e2;fill-opacity:1;fill-rule:evenodd;stroke:none;stroke-width:2;stroke-linecap:round;stroke-linejoin:round;stroke-miterlimit:4.1"/><path style="fill:#fe73c5;fill-opacity:1;fill-rule:evenodd;stroke-width:2;stroke-linecap:round;stroke-linejoin:round;stroke-miterlimit:4.1" d="M404 120h29v6h-29z"/><path d="M404 120v6h24.59a14 8.5 0 0 0 .11-1 14 8.5 0 0 0-2.68-5z" style="fill:#fe93d3;fill-opacity:1;fill-rule:evenodd;stroke-width:2;stroke-linecap:round;stroke-linejoin:round;stroke-miterlimit:4.1"/><path d="M404 130h29" style="color:#000;fill:#918383;fill-rule:evenodd;stroke-width:2;stroke-linecap:round;stroke-linejoin:round;stroke-miterlimit:4.1;-inkscape-stroke:none" transform="translate(0 -4)"/><path d="M406 123c-1.645 0-3 1.355-3 3v5.916a1 1 0 0 0 2 0V131h27v6a1 1 0 0 0 2 0v-11c0-1.645-1.355-3-3-3zm0 2h25c.571 0 1 .429 1 1v3h-27v-3c0-.571.429-1 1-1zm-2 10a1 1 0 0 0-1 1v8c0 1.645 1.355 3 3 3h25c1.645 0 3-1.355 3-3v-3a1 1 0 0 0-2 0v3c0 .571-.429 1-1 1h-25c-.571 0-1-.429-1-1v-8a1 1 0 0 0-1-1z" style="color:#000;fill:#000;fill-rule:evenodd;stroke-linecap:round;stroke-linejoin:round;stroke-miterlimit:4.1;-inkscape-stroke:none" transform="translate(0 -4)"/><path d="M409.936 129.002a1 1 0 0 0-.916.803l-1 5A1 1 0 0 0 409 136h3v2a1 1 0 0 0 2 0v-5a1 1 0 0 0-2 0v1h-1.781l.761-3.805a1 1 0 0 0-1.044-1.193z" style="color:#000;fill:#000;fill-rule:evenodd;stroke-linecap:round;stroke-linejoin:round;stroke-miterlimit:4.1;-inkscape-stroke:none"/><path d="M419 130c1.108 0 2 .892 2 2v3c0 1.108-.892 2-2 2s-2-.892-2-2v-3c0-1.108.892-2 2-2z" style="fill:#ffc343;fill-opacity:1;fill-rule:evenodd;stroke:none;stroke-width:2;stroke-linecap:round;stroke-linejoin:round;stroke-miterlimit:4.1"/><path d="M419 129c-1.645 0-3 1.355-3 3v3c0 1.645 1.355 3 3 3s3-1.355 3-3v-3a1 1 0 0 0-1-1 1 1 0 0 0-1 1v3c0 .571-.429 1-1 1s-1-.429-1-1v-3c0-.571.429-1 1-1a1 1 0 0 0 1-1 1 1 0 0 0-1-1zM425.936 129.002a1 1 0 0 0-.916.803l-1 5A1 1 0 0 0 425 136h3v2a1 1 0 0 0 2 0v-5a1 1 0 0 0-2 0v1h-1.781l.761-3.805a1 1 0 0 0-1.044-1.193z" style="color:#000;fill:#000;fill-rule:evenodd;stroke-linecap:round;stroke-linejoin:round;stroke-miterlimit:4.1;-inkscape-stroke:none"/></g></symbol><symbol fill="none" viewBox="0 0 593 493" id="phantom" xmlns="http://www.w3.org/2000/svg"><path d="M70.055 493c75.549 0 132.325-65.703 166.208-117.622-4.121 11.487-6.411 22.973-6.411 34 0 30.325 17.4 51.919 51.74 51.919 47.161 0 97.527-41.351 123.626-85.919-1.832 6.433-2.747 12.406-2.747 17.919 0 21.135 11.904 34.46 36.172 34.46 76.465 0 153.387-135.541 153.387-254.081C592.03 81.324 545.327 0 428.112 0 222.069 0 0 251.784 0 414.432 0 478.297 34.34 493 70.055 493ZM357.14 163.568c0-22.973 12.821-39.054 31.593-39.054 18.315 0 31.136 16.081 31.136 39.054 0 22.973-12.821 39.513-31.136 39.513-18.772 0-31.593-16.54-31.593-39.513Zm97.985 0c0-22.973 12.821-39.054 31.593-39.054 18.315 0 31.136 16.081 31.136 39.054 0 22.973-12.821 39.513-31.136 39.513-18.772 0-31.593-16.54-31.593-39.513Z" fill="currentColor"/></symbol><symbol viewBox="0 0 24 24" id="right-arrow" xmlns="http://www.w3.org/2000/svg"><path style="fill:currentColor" d="M6.079 22.5a1.5 1.5 0 0 1 .44-1.06l7.672-7.672a2.5 2.5 0 0 0 0-3.536L6.529 2.565A1.5 1.5 0 0 1 8.65.444l7.662 7.661a5.506 5.506 0 0 1 0 7.779L8.64 23.556A1.5 1.5 0 0 1 6.079 22.5Z"/></symbol></svg>